<?xml version="1.0" standalone="no"?>
<!DOCTYPE svg PUBLIC "-//W3C//DTD SVG 20010904//EN"
 "http://www.w3.org/TR/2001/REC-SVG-20010904/DTD/svg10.dtd">
<svg version="1.0" xmlns="http://www.w3.org/2000/svg"
 width="100px" height="76px" viewBox="0 0 514.000000 402.000000"
 preserveAspectRatio="xMidYMid meet">

<g transform="translate(0.000000,265.000000) scale(0.100000,-0.100000)"
fill="#000000" stroke="none">
<path d="M1378 1883 c-388 -388 -588 -595 -588 -608 0 -13 198 -218 583 -603
459 -459 587 -582 607 -582 20 0 148 123 608 583 383 383 582 589 582 602 0
24 -1167 1195 -1190 1195 -8 0 -279 -264 -602 -587z m1142 -68 l535 -535 -197
-197 c-108 -109 -349 -353 -536 -542 l-339 -343 -359 359 c-197 197 -440 441
-539 541 l-180 182 535 535 c294 294 537 535 540 535 3 0 246 -241 540 -535z"/>
<path d="M1546 1801 c-3 -4 12 -13 34 -20 48 -14 57 -25 226 -285 l130 -201
-143 -3 -143 -3 -1 -217 c0 -258 -5 -279 -67 -302 -23 -9 -39 -19 -36 -23 4
-4 202 -7 439 -7 l432 0 7 93 c3 50 9 125 12 165 8 93 -10 97 -49 9 -68 -153
-170 -231 -318 -243 -88 -8 -139 5 -169 43 -19 24 -20 40 -20 244 0 214 0 219
21 219 87 0 191 -72 226 -155 10 -25 24 -45 31 -45 17 0 13 421 -5 427 -6 2
-14 -10 -18 -28 -9 -41 -9 -41 -140 160 l-106 163 113 -4 c100 -3 119 -7 167
-32 69 -36 164 -125 199 -188 30 -54 57 -65 48 -20 -3 15 -11 80 -17 145 l-12
117 -418 0 c-230 0 -420 -4 -423 -9z"/>
</g>
</svg>
