<?xml version="1.0" standalone="no"?>
<!DOCTYPE svg PUBLIC "-//W3C//DTD SVG 20010904//EN"
 "http://www.w3.org/TR/2001/REC-SVG-20010904/DTD/svg10.dtd">
<svg version="1.0" xmlns="http://www.w3.org/2000/svg"
 width="189px" height="72px" viewBox="0 0 873.000000 283.000000"
 preserveAspectRatio="xMidYMid meet">

<g transform="translate(0.000000,283.000000) scale(0.100000,-0.100000)"
fill="#000000" stroke="none">
<path d="M0 1415 l0 -1415 4365 0 4365 0 0 1415 0 1415 -4365 0 -4365 0 0
-1415z m2112 66 c81 -40 159 -118 193 -194 48 -103 48 -240 2 -341 l-24 -52
25 -43 c37 -64 52 -112 40 -135 -14 -26 -76 -16 -138 22 l-49 30 -63 -26 c-55
-23 -77 -27 -168 -27 -103 0 -107 1 -177 39 -136 72 -213 192 -221 341 -8 165
73 307 221 382 78 39 94 43 197 40 85 -3 102 -6 162 -36z m3107 -66 c47 -24
74 -77 78 -159 4 -60 1 -78 -19 -115 -32 -62 -75 -83 -155 -79 -98 6 -150 55
-160 151 -11 105 34 193 110 216 40 13 108 6 146 -14z m-2189 -20 l0 -35 -95
0 -95 0 0 -35 0 -35 85 0 85 0 0 -35 0 -35 -85 0 -85 0 0 -40 0 -39 98 -3 97
-3 3 -32 3 -33 -135 0 -136 0 0 180 0 180 130 0 130 0 0 -35z m125 -87 l38
-123 39 123 39 123 37 -3 c44 -4 46 13 -25 -195 l-56 -163 -36 0 -36 0 -58
173 c-31 95 -57 176 -57 180 0 4 17 7 38 7 l39 0 38 -122z m465 87 l0 -35 -90
0 -90 0 0 -35 0 -35 86 0 85 0 -3 -32 -3 -33 -82 -3 -83 -3 0 -39 0 -40 95 0
95 0 0 -35 0 -35 -135 0 -135 0 0 180 0 180 130 0 130 0 0 -35z m167 -75 l68
-111 3 111 3 110 34 0 35 0 0 -181 0 -180 -37 3 c-34 3 -40 9 -107 115 l-71
112 -3 -114 -3 -115 -34 0 -35 0 0 180 0 180 39 0 c40 0 40 0 108 -110z m443
75 l0 -35 -50 0 -50 0 0 -145 0 -145 -40 0 -40 0 0 145 0 145 -55 0 c-54 0
-55 1 -55 28 0 16 3 32 7 35 3 4 69 7 145 7 l138 0 0 -35z m343 21 c52 -22 72
-51 72 -108 0 -43 -4 -53 -33 -79 -29 -26 -40 -29 -97 -29 l-65 0 0 -65 0 -65
-35 0 -35 0 0 180 0 180 80 0 c46 0 95 -6 113 -14z m310 1 c42 -18 57 -37 64
-82 4 -28 1 -43 -16 -66 -21 -28 -21 -32 -7 -48 11 -12 16 -37 16 -84 l0 -67
-34 0 c-33 0 -34 0 -38 54 -6 74 -18 86 -84 86 l-54 0 0 -70 0 -70 -35 0 -35
0 0 180 0 180 95 0 c58 0 108 -5 128 -13z m760 2 c66 -18 97 -101 63 -168 -19
-36 -55 -51 -121 -51 l-55 0 0 -65 0 -65 -40 0 -40 0 0 180 0 180 78 0 c42 0
94 -5 115 -11z m167 -134 l0 -145 85 0 85 0 0 -32 c0 -49 11 -26 76 159 l56
163 43 0 c41 0 43 -2 58 -42 36 -96 107 -301 107 -309 0 -5 -18 -9 -40 -9 -36
0 -40 3 -48 33 -8 32 -9 32 -74 35 l-66 3 -12 -36 -12 -35 -169 0 -169 0 0
173 c0 96 3 177 7 180 3 4 21 7 40 7 l33 0 0 -145z m675 32 l70 -112 3 113 3
113 32 -3 32 -3 3 -177 2 -178 -37 0 c-37 0 -39 2 -108 111 l-70 112 -3 -112
-3 -111 -34 0 -35 0 0 180 0 180 38 0 c36 0 38 -2 107 -113z m311 1 l69 -113
3 113 3 112 34 0 35 0 0 -181 0 -180 -37 3 c-36 3 -40 8 -110 117 l-73 114 0
-116 0 -117 -35 0 -35 0 0 180 0 180 39 0 c38 0 39 0 107 -112z m424 77 l0
-35 -90 0 -90 0 0 -35 0 -35 85 0 85 0 0 -35 0 -35 -85 0 -85 0 0 -40 0 -40
95 0 95 0 0 -35 0 -35 -135 0 -135 0 0 180 0 180 130 0 130 0 0 -35z m244 21
c18 -8 41 -24 50 -37 23 -33 21 -90 -5 -117 -18 -20 -19 -24 -5 -38 12 -11 16
-35 16 -85 l0 -69 -35 0 -35 0 0 54 c0 70 -15 86 -81 86 l-49 0 0 -70 0 -70
-40 0 -40 0 0 180 0 180 95 0 c59 0 108 -5 129 -14z m-4674 -486 c0 -11 -4
-20 -10 -20 -5 0 -10 9 -10 20 0 11 5 20 10 20 6 0 10 -9 10 -20z m30 0 c0
-11 -4 -20 -10 -20 -5 0 -10 9 -10 20 0 11 5 20 10 20 6 0 10 -9 10 -20z m121
10 c15 -8 19 -22 19 -61 0 -43 -3 -51 -26 -61 -39 -18 -58 0 -62 56 -4 68 21
91 69 66z m118 -27 l20 -38 1 38 c0 20 5 37 10 37 6 0 10 -30 10 -70 0 -38 -4
-70 -10 -70 -5 0 -18 19 -29 43 l-19 42 -1 -42 c-2 -73 -21 -48 -21 27 0 39 4
70 10 70 5 0 18 -17 29 -37z m181 22 c0 -9 -9 -15 -25 -15 -16 0 -25 -6 -25
-15 0 -8 9 -15 20 -15 11 0 20 -4 20 -10 0 -5 -9 -10 -20 -10 -29 0 -25 -28 5
-32 40 -5 30 -23 -12 -23 l-38 0 -3 54 c-2 29 -1 60 2 67 8 20 76 19 76 -1z
m201 5 c12 -7 19 -21 19 -41 0 -24 -6 -32 -30 -40 -19 -7 -30 -18 -30 -30 0
-10 -4 -19 -10 -19 -6 0 -10 30 -10 70 0 64 2 70 21 70 11 0 29 -5 40 -10z
m99 -45 c0 -52 1 -55 25 -55 16 0 25 -6 25 -15 0 -10 -11 -15 -35 -15 l-35 0
0 70 c0 40 4 70 10 70 6 0 10 -25 10 -55z m175 -10 c17 -64 14 -98 -6 -62 -6
9 -16 17 -24 17 -8 0 -18 -8 -24 -17 -5 -10 -13 -15 -16 -11 -11 11 26 138 40
138 7 0 20 -29 30 -65z m135 50 c0 -8 -4 -15 -9 -15 -6 0 -11 -23 -13 -52 -4
-73 -28 -77 -28 -5 0 40 -4 56 -15 61 -29 11 -15 26 25 26 29 0 40 -4 40 -15z
m130 0 c0 -9 -9 -15 -25 -15 -16 0 -25 -6 -25 -15 0 -8 9 -15 20 -15 11 0 20
-4 20 -10 0 -5 -9 -10 -20 -10 -16 0 -20 -7 -20 -30 0 -20 -5 -30 -15 -30 -12
0 -15 14 -15 70 l0 70 40 0 c29 0 40 -4 40 -15z m124 9 c20 -8 23 -103 4 -122
-33 -33 -78 1 -78 58 0 55 30 81 74 64z m142 -2 c19 -13 24 -41 12 -67 -9 -19
-9 -28 0 -37 16 -16 15 -28 -1 -28 -8 0 -20 12 -27 28 l-14 27 -4 -28 c-6 -47
-27 -24 -30 33 -2 29 -1 59 2 66 6 15 44 19 62 6z m115 -24 l15 -31 14 32 c7
17 18 30 24 28 16 -5 15 -129 -1 -134 -9 -3 -13 8 -13 34 -1 33 -2 35 -12 19
-11 -19 -11 -19 -24 -1 -13 17 -14 15 -14 -19 0 -60 -24 -39 -28 24 -5 84 12
105 39 48z m357 20 c-3 -7 -17 -14 -32 -16 -32 -4 -30 -25 2 -30 31 -5 27 -22
-4 -22 -19 0 -25 -4 -22 -17 2 -11 12 -18 27 -18 13 0 26 -6 28 -12 3 -9 -8
-13 -36 -13 l-41 0 0 70 0 70 41 0 c28 0 39 -4 37 -12z m99 -30 l22 -43 0 43
c1 23 6 42 11 42 6 0 10 -30 10 -70 0 -39 -4 -70 -10 -70 -5 0 -18 17 -29 38
l-20 37 -1 -38 c0 -60 -24 -41 -28 23 -5 90 12 105 45 38z m174 32 c15 -8 19
-21 19 -60 0 -54 -15 -70 -64 -70 -25 0 -26 2 -26 70 0 68 1 70 26 70 14 0 34
-5 45 -10z m101 -47 c3 -51 6 -58 26 -61 35 -5 26 -22 -13 -22 l-35 0 0 70 c0
84 18 94 22 13z m178 48 c0 -5 -10 -11 -22 -13 -34 -5 -37 -38 -4 -38 14 0 26
-4 26 -10 0 -5 -12 -10 -26 -10 -36 0 -29 -34 9 -38 42 -5 32 -22 -13 -22
l-40 0 0 70 0 70 35 0 c19 0 35 -4 35 -9z m130 -6 c17 -20 5 -32 -15 -15 -11
9 -19 10 -27 2 -14 -14 -2 -32 22 -32 39 0 47 -63 9 -75 -26 -9 -59 3 -59 21
0 17 12 18 27 3 6 -6 16 -8 22 -5 18 11 13 36 -7 36 -22 0 -42 19 -42 40 0 37
47 53 70 25z m134 9 c9 -3 16 -12 16 -20 0 -17 -12 -18 -27 -3 -6 6 -16 8 -22
5 -15 -10 -2 -36 19 -36 29 0 45 -27 32 -55 -13 -29 -52 -34 -72 -10 -16 20
-5 32 14 16 8 -7 20 -10 26 -6 17 10 11 35 -8 35 -39 0 -57 50 -24 69 20 12
25 13 46 5z m230 -10 c9 -8 16 -20 16 -25 0 -23 -22 -49 -40 -49 -15 0 -20 -7
-20 -25 0 -14 -4 -25 -10 -25 -6 0 -10 30 -10 70 0 67 1 70 24 70 14 0 32 -7
40 -16z m137 6 c15 -8 19 -22 19 -61 0 -42 -3 -51 -24 -60 -42 -19 -66 3 -66
61 0 36 5 52 18 59 22 13 29 13 53 1z m149 -5 c17 -20 5 -32 -15 -15 -11 9
-19 10 -27 2 -14 -14 -2 -32 22 -32 39 0 47 -63 9 -75 -26 -9 -59 3 -59 21 0
17 12 18 27 3 6 -6 16 -8 22 -5 18 11 13 36 -7 36 -39 0 -57 50 -24 69 24 15
38 13 52 -4z m134 9 c9 -3 16 -12 16 -20 0 -17 -17 -19 -22 -2 -2 6 -12 9 -21
5 -21 -8 -11 -37 13 -37 29 0 45 -27 32 -55 -13 -29 -52 -34 -72 -10 -16 20
-5 32 14 16 8 -7 20 -10 26 -6 17 10 11 35 -8 35 -39 0 -57 50 -24 69 20 12
25 13 46 5z m106 -64 c0 -40 -4 -70 -10 -70 -6 0 -10 30 -10 70 0 40 4 70 10
70 6 0 10 -30 10 -70z m125 54 c9 -9 13 -24 10 -34 -3 -10 -1 -21 5 -25 17
-10 11 -44 -9 -55 -11 -5 -31 -10 -45 -10 -25 0 -26 2 -26 70 0 67 1 70 24 70
14 0 32 -7 41 -16z m105 -54 c0 -40 -4 -70 -10 -70 -6 0 -10 30 -10 70 0 40 4
70 10 70 6 0 10 -30 10 -70z m82 13 c3 -55 4 -58 31 -61 38 -5 23 -22 -19 -22
l-34 0 0 70 c0 84 18 94 22 13z m128 -13 c0 -40 -4 -70 -10 -70 -6 0 -10 30
-10 70 0 40 4 70 10 70 6 0 10 -30 10 -70z m130 60 c0 -5 -4 -10 -10 -10 -5 0
-10 -26 -12 -57 -4 -81 -28 -85 -28 -4 0 49 -3 61 -16 61 -8 0 -12 5 -9 10 3
6 22 10 41 10 19 0 34 -4 34 -10z m80 -60 c0 -56 -3 -70 -15 -70 -12 0 -15 14
-15 70 0 56 3 70 15 70 12 0 15 -14 15 -70z m135 61 c3 -5 -7 -11 -22 -13 -38
-4 -45 -38 -9 -38 14 0 26 -4 26 -10 0 -5 -12 -10 -26 -10 -36 0 -29 -34 9
-38 42 -5 32 -22 -13 -22 l-40 0 0 70 0 70 34 0 c19 0 37 -4 41 -9z m125 -6
c17 -20 5 -32 -15 -15 -11 9 -19 10 -27 2 -14 -14 -2 -32 21 -32 30 0 46 -26
33 -55 -13 -29 -52 -34 -72 -10 -16 20 -5 32 14 16 8 -7 20 -10 26 -6 17 10
11 35 -8 35 -39 0 -57 50 -24 69 24 15 38 13 52 -4z m90 -5 c0 -11 -4 -20 -10
-20 -5 0 -10 9 -10 20 0 11 5 20 10 20 6 0 10 -9 10 -20z m30 0 c0 -11 -4 -20
-10 -20 -5 0 -10 9 -10 20 0 11 5 20 10 20 6 0 10 -9 10 -20z m-2820 -125 c0
-8 -4 -15 -10 -15 -5 0 -10 7 -10 15 0 8 5 15 10 15 6 0 10 -7 10 -15z"/>
<path d="M1880 1379 c-139 -28 -236 -171 -210 -310 31 -165 188 -259 353 -212
15 4 7 16 -42 69 -74 79 -134 166 -172 250 -31 67 -39 110 -12 59 84 -155 406
-455 489 -455 38 0 15 64 -57 159 -41 55 -42 55 -30 104 15 66 14 96 -6 156
-41 130 -176 207 -313 180z"/>
<path d="M5069 1341 c-26 -27 -29 -36 -29 -95 0 -54 4 -70 24 -93 20 -23 32
-28 66 -27 52 2 80 27 89 80 23 128 -72 213 -150 135z"/>
<path d="M4450 1309 l0 -51 56 4 c58 5 74 16 74 54 0 32 -20 44 -77 44 l-53 0
0 -51z"/>
<path d="M4730 1315 l0 -45 59 0 c79 0 106 24 81 71 -9 16 -22 19 -75 19 l-65
0 0 -45z"/>
<path d="M5530 1310 l0 -50 41 0 c55 0 79 15 79 48 0 40 -17 52 -72 52 l-48 0
0 -50z"/>
<path d="M6133 1276 l-21 -66 43 0 44 0 -18 53 c-10 28 -20 58 -22 65 -3 7
-14 -16 -26 -52z"/>
<path d="M7320 1315 l0 -45 51 0 c61 0 89 13 89 43 0 36 -19 47 -82 47 l-58 0
0 -45z"/>
<path d="M2903 923 c-18 -6 -17 -79 1 -86 19 -8 36 12 36 44 0 29 -18 49 -37
42z"/>
<path d="M3400 899 c0 -14 5 -19 17 -17 26 5 29 38 4 38 -15 0 -21 -6 -21 -21z"/>
<path d="M3682 880 c0 -14 2 -19 5 -12 2 6 2 18 0 25 -3 6 -5 1 -5 -13z"/>
<path d="M4064 917 c-10 -28 0 -82 16 -82 11 0 15 12 15 44 0 44 -19 68 -31
38z"/>
<path d="M4210 899 c0 -24 23 -21 28 4 2 10 -3 17 -12 17 -10 0 -16 -9 -16
-21z"/>
<path d="M4940 882 c0 -43 20 -61 40 -37 19 23 8 70 -17 73 -21 3 -23 -1 -23
-36z"/>
<path d="M5720 906 c0 -17 5 -26 16 -26 10 0 14 7 12 22 -5 32 -28 35 -28 4z"/>
<path d="M5862 918 c-26 -26 -8 -96 23 -85 12 5 15 17 13 49 -3 44 -16 56 -36
36z"/>
<path d="M6372 914 c4 -21 22 -23 26 -1 2 10 -3 17 -13 17 -10 0 -15 -6 -13
-16z"/>
<path d="M6370 857 c0 -19 10 -27 26 -20 21 8 17 33 -6 33 -11 0 -20 -6 -20
-13z"/>
</g>
</svg>
